<?xml version="1.0" encoding="UTF-8" standalone="no"?>
<!DOCTYPE svg PUBLIC "-//W3C//DTD SVG 1.1//EN" "http://www.w3.org/Graphics/SVG/1.1/DTD/svg11.dtd">
<svg width="100%" height="100%" viewBox="0 0 31 32" version="1.1" xmlns="http://www.w3.org/2000/svg" xmlns:xlink="http://www.w3.org/1999/xlink" xml:space="preserve" xmlns:serif="http://www.serif.com/" style="fill-rule:evenodd;clip-rule:evenodd;stroke-linejoin:round;stroke-miterlimit:2;">
    <circle cx="15.94" cy="15.938" r="15.938" style="fill:url(#_Linear1);fill-rule:nonzero;"/>
    <g transform="matrix(1.77726,0,0,1.77726,-12.3895,-12.3877)">
        <path d="M17.704,19.188C17.519,19.345 17.28,19.469 16.988,19.562C16.695,19.655 16.357,19.701 15.972,19.701C15.459,19.701 15.035,19.637 14.7,19.509C14.365,19.38 14.147,19.159 14.048,18.846C13.649,17.591 13.321,16.576 13.064,15.799C12.808,15.022 12.608,14.341 12.465,13.757L12.359,13.757C12.316,14.598 12.284,15.364 12.262,16.055C12.241,16.747 12.227,17.42 12.22,18.076C12.212,18.732 12.198,19.394 12.177,20.064C12.155,20.734 12.123,21.476 12.081,22.288C11.895,22.359 11.653,22.42 11.354,22.47C11.054,22.52 10.755,22.545 10.456,22.545C9.828,22.545 9.34,22.445 8.991,22.245C8.642,22.046 8.467,21.682 8.467,21.155L9.087,10.25C9.201,10.065 9.451,9.865 9.835,9.651C10.22,9.438 10.762,9.331 11.46,9.331C12.216,9.331 12.808,9.448 13.235,9.684C13.663,9.919 13.976,10.3 14.176,10.827C14.304,11.17 14.443,11.562 14.593,12.003C14.743,12.445 14.892,12.901 15.042,13.372C15.192,13.842 15.338,14.309 15.48,14.772C15.623,15.236 15.751,15.653 15.865,16.023L15.972,16.023C16.314,14.826 16.656,13.668 16.998,12.549C17.341,11.43 17.654,10.492 17.939,9.737C18.153,9.623 18.427,9.527 18.762,9.448C19.097,9.37 19.472,9.331 19.885,9.331C20.583,9.331 21.154,9.434 21.596,9.641C22.037,9.847 22.294,10.143 22.365,10.528C22.422,10.813 22.483,11.252 22.547,11.843C22.611,12.435 22.679,13.101 22.75,13.842C22.821,14.584 22.893,15.368 22.964,16.194C23.035,17.021 23.103,17.816 23.167,18.578C23.231,19.341 23.285,20.039 23.327,20.674C23.37,21.308 23.399,21.796 23.413,22.138C23.171,22.281 22.918,22.384 22.654,22.449C22.39,22.513 22.052,22.545 21.638,22.545C21.097,22.545 20.64,22.452 20.27,22.267C19.899,22.081 19.7,21.718 19.671,21.176C19.586,19.623 19.532,18.226 19.511,16.985C19.489,15.745 19.457,14.705 19.415,13.864L19.308,13.864C19.165,14.42 18.958,15.118 18.688,15.959C18.417,16.8 18.089,17.876 17.704,19.188Z" style="fill:url(#_Linear2);fill-rule:nonzero;"/>
    </g>
    <defs>
        <linearGradient id="_Linear1" x1="0" y1="0" x2="1" y2="0" gradientUnits="userSpaceOnUse" gradientTransform="matrix(18.6357,20.1003,-20.1003,18.6357,-0.261632,5.68248)"><stop offset="0" style="stop-color:rgb(65,209,255);stop-opacity:1"/><stop offset="1" style="stop-color:rgb(189,52,254);stop-opacity:1"/></linearGradient>
        <linearGradient id="_Linear2" x1="0" y1="0" x2="1" y2="0" gradientUnits="userSpaceOnUse" gradientTransform="matrix(12.4299,12.9494,-12.9494,12.4299,10.0157,9.33071)"><stop offset="0" style="stop-color:rgb(255,234,131);stop-opacity:1"/><stop offset="0.08" style="stop-color:rgb(255,221,53);stop-opacity:1"/><stop offset="1" style="stop-color:rgb(255,168,0);stop-opacity:1"/></linearGradient>
    </defs>
</svg>
